<svg xmlns="http://www.w3.org/2000/svg" xmlns:xlink="http://www.w3.org/1999/xlink" width="100" zoomAndPan="magnify" viewBox="0 0 75 44.999999" height="60" preserveAspectRatio="xMidYMid meet" version="1.0"><defs><clipPath id="id1"><path d="M 0.855469 1.519531 L 72.855469 1.519531 L 72.855469 42.730469 L 0.855469 42.730469 Z M 0.855469 1.519531 " clip-rule="nonzero"/></clipPath></defs><rect x="-7.5" width="90" fill="#ffffff" y="-4.5" height="53.999999" fill-opacity="1"/><rect x="-7.5" width="90" fill="#ffffff" y="-4.5" height="53.999999" fill-opacity="1"/><rect x="-7.5" width="90" fill="#ffffff" y="-4.5" height="53.999999" fill-opacity="1"/><rect x="-7.5" width="90" fill="#ffffff" y="-4.5" height="53.999999" fill-opacity="1"/><path fill="#000000" d="M 65.714844 20.78125 C 66.40625 20.273438 67.5625 20.980469 68.433594 21.007812 C 68.253906 21.375 67.664062 21.261719 67.300781 21.234375 C 66.730469 21.191406 65.945312 21.050781 65.714844 20.78125 " fill-opacity="1" fill-rule="nonzero"/><path fill="#000000" d="M 66.09375 28.398438 C 65.464844 28.855469 64.46875 29.082031 63.753906 29.378906 C 63.140625 29.632812 62.410156 29.777344 61.863281 29.980469 C 61.59375 30.085938 61.382812 30.453125 61.109375 30.132812 C 62.519531 29.277344 64.15625 28.652344 65.941406 28.171875 C 65.941406 28.300781 66 28.367188 66.09375 28.398438 " fill-opacity="1" fill-rule="nonzero"/><path fill="#000000" d="M 61.035156 22.667969 C 61.027344 22.007812 61.855469 22.332031 62.167969 22.289062 C 63.179688 22.152344 64.375 21.703125 65.488281 21.761719 C 65.046875 22.1875 64.15625 22.246094 63.375 22.441406 C 62.609375 22.632812 61.734375 22.96875 61.035156 22.667969 " fill-opacity="1" fill-rule="nonzero"/><path fill="#000000" d="M 57.261719 31.867188 C 58.085938 31.609375 59.066406 31.507812 59.976562 31.335938 C 59.953125 31.792969 59.128906 31.886719 58.621094 32.019531 C 58.15625 32.136719 57.363281 32.417969 57.261719 31.867188 " fill-opacity="1" fill-rule="nonzero"/><path fill="#000000" d="M 55.148438 19.800781 C 55.054688 19.226562 55.96875 19.191406 56.128906 19.5 C 56.097656 20.03125 55.53125 19.941406 55.148438 19.800781 " fill-opacity="1" fill-rule="nonzero"/><path fill="#000000" d="M 53.558594 19.273438 C 53.46875 18.601562 54.550781 18.789062 54.542969 19.273438 C 54.265625 19.472656 53.875 19.402344 53.558594 19.273438 " fill-opacity="1" fill-rule="nonzero"/><path fill="#000000" d="M 52.5 31.039062 C 52.085938 31.355469 51.535156 30.800781 51.976562 30.507812 C 52.257812 30.578125 52.433594 30.753906 52.5 31.039062 " fill-opacity="1" fill-rule="nonzero"/><path fill="#000000" d="M 51.746094 32.320312 C 51.261719 32.652344 50.621094 32.015625 51.070312 31.640625 C 51.386719 31.773438 51.699219 31.914062 51.746094 32.320312 " fill-opacity="1" fill-rule="nonzero"/><path fill="#000000" d="M 51.976562 18.746094 C 51.777344 19.070312 50.585938 19.515625 50.617188 18.746094 C 51.03125 18.5625 51.726562 18.550781 51.976562 18.746094 " fill-opacity="1" fill-rule="nonzero"/><path fill="#000000" d="M 39.289062 7.738281 C 38.640625 7.21875 39.710938 6.609375 39.742188 7.511719 C 39.644531 7.640625 39.496094 7.714844 39.289062 7.738281 " fill-opacity="1" fill-rule="nonzero"/><path fill="#000000" d="M 39.363281 34.957031 C 39.25 35.269531 39.0625 35.511719 38.609375 35.488281 C 38.335938 35.007812 39.03125 34.617188 39.363281 34.957031 " fill-opacity="1" fill-rule="nonzero"/><path fill="#000000" d="M 38.988281 34.28125 C 38.84375 34.4375 38.78125 34.679688 38.460938 34.65625 C 38.425781 34.589844 38.394531 34.519531 38.308594 34.503906 C 38.246094 34.246094 38.390625 34.1875 38.460938 34.050781 C 38.621094 34.144531 38.878906 34.132812 38.988281 34.28125 " fill-opacity="1" fill-rule="nonzero"/><path fill="#000000" d="M 38.835938 8.113281 C 38.566406 8.160156 38.472656 8.027344 38.308594 7.964844 C 38.285156 7.589844 38.410156 7.363281 38.835938 7.433594 C 38.898438 7.597656 39.03125 7.691406 38.988281 7.964844 C 38.859375 7.933594 38.84375 8.023438 38.835938 8.113281 " fill-opacity="1" fill-rule="nonzero"/><path fill="#000000" d="M 31.664062 38.804688 C 30.910156 38.417969 32.25 37.695312 32.195312 38.578125 C 32.011719 38.648438 31.824219 38.714844 31.664062 38.804688 " fill-opacity="1" fill-rule="nonzero"/><path fill="#000000" d="M 31.589844 37.371094 C 31.613281 37.824219 31.378906 38.015625 30.910156 37.972656 L 30.910156 37.523438 C 31.160156 37.496094 31.242188 37.304688 31.589844 37.371094 " fill-opacity="1" fill-rule="nonzero"/><g clip-path="url(#id1)"><path fill="#000000" d="M 23.28125 14.597656 C 23.339844 13.679688 23.71875 12.855469 23.359375 11.882812 L 23.207031 11.882812 C 22.472656 12.210938 21.824219 14.414062 21.394531 15.503906 C 20.886719 16.796875 20.292969 17.910156 19.886719 18.972656 C 19.414062 20.214844 19.074219 21.472656 18.601562 22.667969 C 18.109375 23.902344 17.578125 25.082031 17.167969 26.285156 C 16.300781 28.820312 15.492188 31.34375 14.523438 33.675781 C 14.035156 34.855469 13.445312 35.972656 13.015625 37.144531 C 12.566406 38.371094 11.8125 39.53125 11.804688 40.839844 C 13.535156 39.953125 15.179688 38.769531 16.867188 37.597656 C 18.570312 36.414062 20.511719 35.574219 22.378906 34.582031 C 23.335938 33.125 23.09375 30.566406 23.054688 28.246094 C 23.03125 26.675781 22.980469 25.109375 23.054688 23.574219 C 23.207031 20.46875 23.113281 17.375 23.28125 14.597656 Z M 23.207031 9.921875 C 24.675781 8.953125 25.957031 7.792969 27.359375 6.757812 C 26.789062 6.3125 26.371094 5.421875 25.550781 5.25 C 25.121094 5.160156 24.230469 5.363281 23.511719 5.472656 C 21.339844 5.816406 18.867188 6.28125 17.320312 6.605469 C 19.160156 7.835938 21.503906 8.558594 23.207031 9.921875 Z M 49.332031 35.035156 C 49.371094 30.371094 49.492188 23.800781 49.40625 18.066406 C 49.332031 13.222656 49.675781 8.25 48.652344 3.4375 C 46.730469 2.484375 44.398438 3.816406 42.839844 4.417969 C 43.371094 7.054688 43.054688 10.121094 42.914062 13.089844 C 42.800781 15.410156 42.976562 17.753906 42.839844 20.027344 C 42.445312 26.503906 42.246094 32.78125 42.308594 39.179688 C 44.671875 38.171875 46.914062 37.042969 49.027344 35.789062 C 49.109375 35.554688 48.96875 35.140625 49.332031 35.035156 Z M 53.03125 35.9375 C 52.996094 33.507812 53.296875 32.347656 53.257812 29.828125 C 52.222656 29.398438 51.335938 28.886719 50.085938 28.925781 C 50.265625 30.75 49.992188 32.757812 50.011719 35.109375 C 51.105469 35.339844 51.957031 35.578125 53.03125 35.9375 Z M 66.546875 29.980469 C 66.605469 28.898438 66.683594 28.300781 66.695312 27.191406 L 66.546875 27.191406 C 65.378906 27.691406 63.890625 28.109375 62.167969 28.546875 C 60.996094 28.847656 59.917969 29.417969 58.921875 29.679688 C 57.679688 30.007812 56.050781 30.054688 55.371094 30.734375 C 54.699219 31.40625 54.769531 32.6875 54.84375 33.75 C 59.800781 33.792969 62.324219 31.027344 66.546875 29.980469 Z M 67.753906 26.136719 C 67.871094 26.117188 67.765625 26.011719 67.679688 25.984375 C 66.671875 26.273438 65.550781 26.628906 64.433594 27.039062 C 61.128906 28.257812 57.519531 28.621094 54.011719 29.527344 C 53.753906 31.351562 53.507812 34.054688 53.710938 36.242188 C 56.21875 35.683594 58.476562 34.585938 60.734375 33.601562 C 62.457031 32.847656 64.28125 32.324219 66.015625 31.640625 C 66.472656 31.460938 67.421875 31.195312 67.453125 30.660156 C 66.3125 30.460938 65.195312 31.078125 64.132812 31.488281 C 61.929688 32.339844 60.179688 33.433594 57.710938 34.050781 C 56.632812 34.324219 55.089844 34.875 54.164062 33.976562 C 54.101562 32.375 54.125 30.550781 55.371094 29.90625 C 56.417969 29.359375 57.984375 29.308594 59.449219 28.851562 C 60.121094 28.636719 60.738281 28.359375 61.414062 28.171875 C 62.109375 27.980469 62.796875 27.890625 63.453125 27.71875 C 64.175781 27.527344 64.796875 27.089844 65.414062 26.890625 C 66.097656 26.667969 66.679688 26.53125 67.148438 26.363281 C 67.476562 26.246094 67.789062 26.320312 67.753906 26.136719 Z M 70.472656 23.949219 C 71.019531 23.816406 71.644531 23.992188 72.058594 23.421875 C 69.949219 23.46875 67.800781 23.925781 65.640625 24.25 C 64.585938 24.410156 63.566406 24.621094 62.546875 24.855469 C 61.5 25.089844 60.4375 25.214844 59.449219 25.457031 C 58.96875 25.574219 58.230469 26.121094 57.488281 25.984375 C 57.058594 25.90625 56.707031 25.433594 56.578125 25.078125 C 56.265625 24.199219 56.328125 22.128906 56.503906 21.460938 C 56.632812 20.96875 57.683594 19.945312 58.316406 19.875 C 61.449219 19.53125 65.726562 19.289062 68.660156 18.671875 C 69.699219 18.449219 70.902344 18.316406 71.300781 17.539062 C 69.855469 17.125 68.234375 17.574219 66.847656 17.386719 C 65.953125 17.269531 65.105469 16.941406 64.207031 16.859375 C 59.753906 16.46875 54.46875 16.019531 50.164062 15.503906 C 50.132812 19.316406 49.617188 22.460938 50.085938 25.910156 C 52.414062 26.054688 54.574219 26.617188 56.808594 26.585938 C 60.28125 26.542969 63.863281 25.613281 67.226562 24.855469 C 68.359375 24.597656 69.398438 24.207031 70.472656 23.949219 Z M 71.152344 22.441406 C 72.035156 22.640625 73.070312 22.6875 72.8125 24.023438 C 71.863281 24.933594 69.90625 24.839844 68.660156 25.457031 C 68.652344 25.519531 68.804688 26.0625 68.734375 26.4375 C 68.378906 26.683594 67.875 26.785156 67.527344 27.039062 C 67.554688 27.894531 67.394531 28.566406 67.453125 29.453125 C 67.832031 29.542969 68.753906 30.757812 68.507812 31.335938 C 68.300781 31.835938 66.121094 32.527344 65.261719 32.847656 C 62.746094 33.777344 60.949219 34.640625 58.621094 35.5625 C 57.121094 36.152344 55.625 36.347656 54.238281 36.996094 C 53.914062 37.148438 53.785156 37.371094 53.558594 37.371094 C 53.113281 37.371094 52.855469 36.894531 52.425781 36.691406 C 51.636719 36.320312 50.757812 36.335938 50.238281 36.089844 C 49.917969 36.09375 50.082031 36.585938 49.859375 36.691406 C 49.523438 36.777344 49.308594 36.511719 49.105469 36.691406 C 46.949219 37.984375 44.515625 38.996094 42.234375 40.160156 C 41.628906 39.957031 41.101562 40.335938 40.5 40.386719 C 38.964844 40.519531 37.371094 39.789062 36.042969 39.558594 C 35.792969 40.484375 35.71875 42.140625 34.609375 42.421875 C 34.195312 42.53125 33.371094 42.394531 32.71875 42.421875 C 30.195312 42.53125 26.292969 42.9375 24.113281 42.574219 C 22.1875 42.253906 21.546875 40.382812 22.832031 38.804688 L 22.832031 35.410156 C 20.203125 36.464844 17.480469 38.355469 14.902344 39.933594 C 13.640625 40.707031 12.484375 41.859375 11.355469 42.273438 C 10.355469 42.636719 8.902344 41.9375 8.03125 41.667969 C 7.417969 41.480469 6.957031 41.148438 6.445312 40.914062 C 5.433594 40.453125 4.203125 40.0625 3.351562 39.632812 C 2.066406 38.992188 0.761719 38.375 0.859375 36.542969 C 1.105469 36.109375 1.441406 35.765625 1.839844 35.488281 C 3.453125 26.191406 7.957031 18.492188 10.597656 10.148438 C 10.828125 9.421875 10.960938 8.527344 11.203125 7.734375 C 11.292969 7.4375 11.535156 7.117188 11.578125 6.832031 C 11.683594 6.164062 11.308594 5.4375 11.957031 5.023438 C 13.707031 4.441406 16.117188 4.253906 18.222656 3.890625 C 20.25 3.542969 21.902344 3.320312 24.339844 3.210938 C 25.039062 3.179688 25.8125 2.953125 26.453125 3.4375 C 26.65625 3.847656 26.335938 4.246094 26.453125 4.644531 C 26.597656 5.125 27.507812 5.789062 27.8125 5.851562 C 28.160156 5.921875 28.417969 5.554688 28.796875 5.777344 C 29.339844 5.660156 28.832031 6.59375 29.324219 6.53125 C 29.828125 5.625 28.875 3.3125 29.851562 2.535156 C 31.082031 1.554688 33.257812 2.988281 34.910156 2.757812 C 35.113281 2.613281 34.863281 2.007812 35.0625 1.855469 C 35.398438 1.324219 36.214844 1.511719 37.101562 1.554688 C 38.785156 1.628906 40.972656 1.523438 42.835938 1.628906 C 43.9375 1.6875 44.984375 2.050781 45.933594 2.15625 C 47.414062 2.320312 49.019531 2.167969 49.707031 3.289062 C 50.125 6.867188 50.257812 10.792969 50.3125 14.523438 C 54.300781 15.203125 59.492188 15.683594 64.355469 16.03125 C 65.558594 16.117188 66.765625 16.46875 68.359375 16.558594 C 69.269531 16.609375 71.714844 16.402344 71.980469 17.238281 C 72.332031 18.332031 71.273438 18.628906 71 19.199219 C 71.011719 19.488281 71.257812 19.546875 71.226562 19.875 C 70.902344 20.507812 71.449219 21.429688 71.152344 22.441406 Z M 23.511719 38.046875 C 23.527344 38.441406 23.648438 38.785156 23.585938 39.105469 C 23.492188 39.574219 22.855469 39.984375 22.90625 40.6875 C 23.007812 42.101562 26.582031 41.730469 27.738281 41.746094 C 30.730469 41.78125 32.089844 41.511719 34.609375 41.441406 C 35.078125 40.890625 35.535156 39.519531 35.0625 38.726562 C 35.394531 37.886719 35.171875 36.546875 35.0625 35.410156 C 34.292969 27.46875 34.210938 19.0625 33.25 11.207031 C 33.394531 10.714844 34.082031 10.875 33.855469 10.375 C 33.695312 10.039062 33.03125 9.992188 32.417969 10.148438 C 30.144531 9.375 26.964844 9.65625 24.792969 10 C 24.808594 10.554688 24.054688 10.285156 23.8125 10.601562 C 23.453125 11.0625 23.957031 11.488281 24.039062 12.109375 C 24.132812 12.808594 23.851562 13.601562 23.8125 14.371094 C 23.472656 20.496094 23.558594 27.636719 23.585938 33.148438 C 23.59375 34.632812 23.4375 36.519531 23.511719 38.046875 Z M 25.394531 4.117188 C 24.6875 4.039062 23.25 4.050781 22.300781 4.117188 C 20.914062 4.210938 19.558594 4.578125 18.222656 4.792969 C 16.835938 5.023438 15.46875 5.121094 14.222656 5.472656 C 14.957031 5.503906 15.613281 6.203125 16.414062 6.226562 C 17.058594 6.246094 17.941406 5.875 18.753906 5.699219 C 20.578125 5.308594 22.808594 4.875 24.566406 4.644531 C 24.878906 4.601562 25.589844 4.78125 25.699219 4.265625 C 25.632812 3.921875 25.488281 4.125 25.394531 4.117188 Z M 25.246094 9.242188 C 27.050781 9.335938 27.703125 8.277344 28.265625 7.132812 C 26.890625 7.46875 26.25 8.539062 25.246094 9.242188 Z M 29.703125 8.1875 C 29.871094 8.429688 29.683594 8.839844 29.550781 9.015625 C 30.441406 8.957031 31.050781 9.179688 31.816406 9.242188 C 31.789062 8.414062 31.273438 8.074219 31.058594 7.433594 C 30.390625 7.183594 29.675781 7.421875 28.796875 7.359375 C 28.523438 7.929688 27.59375 8.601562 27.738281 9.09375 C 28.277344 9.140625 28.960938 8.972656 29.324219 9.09375 C 29.359375 8.945312 28.988281 8.042969 29.703125 8.1875 Z M 30.378906 6.679688 C 31.132812 6.886719 31.113281 5.917969 31.816406 5.851562 C 32.199219 6.496094 32.714844 7.277344 33.324219 8.113281 C 33.839844 8.816406 34.609375 9.882812 34.382812 10.828125 C 34.308594 11.144531 33.925781 11.332031 33.855469 11.65625 C 33.683594 12.410156 34.066406 13.839844 34.15625 14.898438 C 34.804688 22.511719 35.144531 31.222656 35.742188 38.5 C 37.417969 39.027344 39.835938 40.066406 41.707031 39.105469 C 41.769531 33.667969 41.777344 27.839844 42.160156 22.816406 C 42.292969 21.09375 42.527344 19.378906 42.535156 17.765625 C 42.546875 15.632812 42.464844 13.625 42.535156 11.734375 C 42.628906 9.285156 42.894531 6.953125 42.308594 4.570312 C 40.691406 4.335938 38.847656 4.011719 37.023438 3.816406 C 34.75 3.570312 32.085938 3.273438 30.304688 3.363281 C 30.089844 4.1875 30.003906 5.96875 30.378906 6.679688 Z M 32.570312 9.394531 C 32.957031 9.285156 33.3125 9.601562 33.550781 9.394531 C 32.78125 8.609375 32.347656 7.480469 31.511719 6.753906 C 31.625 7.855469 32.519531 8.476562 32.570312 9.394531 Z M 2.59375 38.277344 C 3.621094 39.015625 5.125 39.375 6.296875 39.859375 C 7.976562 40.558594 9.773438 41.71875 11.355469 41.292969 C 11.421875 40.855469 11.0625 40.625 11.128906 40.160156 C 11.183594 39.769531 11.625 39.0625 11.882812 38.5 C 12.15625 37.90625 12.363281 37.253906 12.5625 36.691406 C 13.011719 35.429688 13.628906 34.269531 14.074219 33.222656 C 15.085938 30.835938 15.894531 28.1875 16.714844 25.90625 C 18.535156 20.851562 20.625 16.199219 22.300781 11.582031 C 22.449219 11.226562 22.882812 11.15625 22.832031 10.601562 C 22.230469 9.570312 20.933594 9.363281 19.886719 8.867188 C 19.355469 8.617188 18.859375 8.199219 18.300781 7.886719 C 16.671875 6.976562 14.429688 6.019531 12.488281 5.773438 C 12.378906 5.796875 12.402344 5.941406 12.335938 6 C 12.273438 6.386719 12.496094 6.496094 12.488281 6.832031 C 12.132812 7.304688 11.894531 7.898438 11.957031 8.792969 C 10.996094 10.15625 10.828125 11.875 10.296875 13.390625 C 9.984375 14.28125 9.511719 15.140625 9.164062 16.03125 C 6.6875 22.410156 3.792969 28.585938 2.519531 36.085938 C 2.269531 36.375 1.777344 36.394531 1.691406 36.84375 C 1.574219 37.417969 2.253906 38.03125 2.59375 38.277344 Z M 35.890625 2.984375 C 37.148438 3.234375 38.308594 3.359375 39.742188 3.515625 C 40.703125 3.617188 41.777344 3.976562 42.460938 3.890625 C 43.402344 3.777344 44.109375 3.050781 44.953125 2.835938 C 42.039062 2.230469 38.320312 2.386719 35.742188 2.382812 C 35.675781 2.699219 35.886719 2.738281 35.890625 2.984375 Z M 50.164062 28.097656 C 51.378906 28.285156 52.355469 28.773438 53.257812 29.074219 C 57.035156 28.121094 61.777344 27.480469 65.261719 25.984375 C 65.167969 25.980469 65.15625 25.886719 65.035156 25.90625 C 60.738281 27.394531 55.15625 27.445312 50.085938 26.585938 C 50.136719 27.152344 50.15625 27.664062 50.164062 28.097656 Z M 57.410156 25.304688 C 61.628906 24.390625 65.632812 23.558594 70.320312 22.890625 C 70.207031 21.945312 70.640625 21.230469 70.171875 20.480469 C 70.117188 20.152344 70.386719 20.144531 70.398438 19.875 C 70.050781 19.722656 70.164062 19.226562 70.097656 18.972656 C 68.808594 19.324219 67.140625 19.707031 65.414062 19.953125 C 62.648438 20.34375 58.738281 19.773438 57.183594 21.460938 C 56.964844 22.550781 56.8125 24.425781 57.410156 25.304688 " fill-opacity="1" fill-rule="nonzero"/></g><path fill="#000000" d="M 27.511719 14.371094 C 27.714844 14.613281 27.527344 14.949219 27.132812 14.824219 C 27.125 14.539062 27.28125 14.417969 27.511719 14.371094 " fill-opacity="1" fill-rule="nonzero"/><path fill="#000000" d="M 26.453125 13.242188 C 26.695312 13.117188 26.769531 13.113281 27.058594 13.167969 C 27.136719 13.449219 26.871094 13.382812 26.90625 13.617188 C 26.71875 13.628906 26.542969 13.628906 26.453125 13.542969 L 26.453125 13.242188 " fill-opacity="1" fill-rule="nonzero"/><path fill="#000000" d="M 22.832031 8.1875 C 23.183594 7.351562 24.699219 6.898438 25.550781 7.058594 C 25.335938 7.554688 24.609375 7.519531 24.113281 7.738281 C 23.675781 7.929688 23.234375 8.5 22.832031 8.1875 " fill-opacity="1" fill-rule="nonzero"/><path fill="#000000" d="M 20.566406 6.832031 C 21.292969 6.628906 22.503906 6.28125 23.585938 6.53125 C 23.445312 7.144531 22.722656 6.855469 22.300781 6.90625 C 21.515625 7 20.582031 7.523438 19.734375 7.210938 C 19.710938 6.769531 20.265625 6.914062 20.566406 6.832031 " fill-opacity="1" fill-rule="nonzero"/><path fill="#000000" d="M 18.300781 11.808594 C 18.308594 12.15625 18.671875 12.273438 18.527344 12.5625 L 18.148438 12.5625 C 18.042969 12.339844 17.921875 12.085938 18.074219 11.808594 L 18.300781 11.808594 " fill-opacity="1" fill-rule="nonzero"/><path fill="#000000" d="M 17.015625 11.960938 C 17.339844 12.136719 17.316406 12.667969 17.542969 12.941406 C 17.050781 13.230469 16.503906 12.230469 17.015625 11.960938 " fill-opacity="1" fill-rule="nonzero"/><path fill="#000000" d="M 6.523438 36.316406 C 5.894531 36.46875 5.523438 35.578125 5.992188 35.335938 C 6.230469 35.601562 6.472656 35.863281 6.523438 36.316406 " fill-opacity="1" fill-rule="nonzero"/><path fill="#000000" d="M 5.390625 36.164062 C 5.246094 36.195312 5.199219 36.328125 5.011719 36.316406 C 4.628906 36.042969 4.433594 35.144531 5.164062 35.109375 C 4.980469 35.691406 5.277344 35.726562 5.390625 36.164062 " fill-opacity="1" fill-rule="nonzero"/></svg>